<svg width="1855" height="498" viewBox="0 0 1855 498" fill="none" xmlns="http://www.w3.org/2000/svg">
<path d="M732.555 319H704.555L641.155 223.2V319H613.155V179.2H641.155L704.555 275.2V179.2H732.555V319ZM864.826 208.2V319H836.626V305C833.026 309.8 828.292 313.6 822.426 316.4C816.692 319.067 810.426 320.4 803.626 320.4C794.959 320.4 787.292 318.6 780.626 315C773.959 311.267 768.692 305.867 764.826 298.8C761.092 291.6 759.226 283.067 759.226 273.2V208.2H787.226V269.2C787.226 278 789.426 284.8 793.826 289.6C798.226 294.267 804.226 296.6 811.826 296.6C819.559 296.6 825.626 294.267 830.026 289.6C834.426 284.8 836.626 278 836.626 269.2V208.2H864.826ZM885.252 263.6C885.252 252.133 887.586 242.133 892.252 233.6C896.919 224.933 903.386 218.267 911.652 213.6C919.919 208.8 929.386 206.4 940.052 206.4C953.786 206.4 965.119 209.867 974.052 216.8C983.119 223.6 989.186 233.2 992.252 245.6H962.052C960.452 240.8 957.719 237.067 953.852 234.4C950.119 231.6 945.452 230.2 939.852 230.2C931.852 230.2 925.519 233.133 920.852 239C916.186 244.733 913.852 252.933 913.852 263.6C913.852 274.133 916.186 282.333 920.852 288.2C925.519 293.933 931.852 296.8 939.852 296.8C951.186 296.8 958.586 291.733 962.052 281.6H992.252C989.186 293.6 983.119 303.133 974.052 310.2C964.986 317.267 953.652 320.8 940.052 320.8C929.386 320.8 919.919 318.467 911.652 313.8C903.386 309 896.919 302.333 892.252 293.8C887.586 285.133 885.252 275.067 885.252 263.6ZM1040.76 171V319H1012.76V171H1040.76ZM1171.43 261.2C1171.43 265.2 1171.16 268.8 1170.63 272H1089.63C1090.3 280 1093.1 286.267 1098.03 290.8C1102.96 295.333 1109.03 297.6 1116.23 297.6C1126.63 297.6 1134.03 293.133 1138.43 284.2H1168.63C1165.43 294.867 1159.3 303.667 1150.23 310.6C1141.16 317.4 1130.03 320.8 1116.83 320.8C1106.16 320.8 1096.56 318.467 1088.03 313.8C1079.63 309 1073.03 302.267 1068.23 293.6C1063.56 284.933 1061.23 274.933 1061.23 263.6C1061.23 252.133 1063.56 242.067 1068.23 233.4C1072.9 224.733 1079.43 218.067 1087.83 213.4C1096.23 208.733 1105.9 206.4 1116.83 206.4C1127.36 206.4 1136.76 208.667 1145.03 213.2C1153.43 217.733 1159.9 224.2 1164.43 232.6C1169.1 240.867 1171.43 250.4 1171.43 261.2ZM1142.43 253.2C1142.3 246 1139.7 240.267 1134.63 236C1129.56 231.6 1123.36 229.4 1116.03 229.4C1109.1 229.4 1103.23 231.533 1098.43 235.8C1093.76 239.933 1090.9 245.733 1089.83 253.2H1142.43ZM1241.07 320.8C1230.4 320.8 1220.8 318.467 1212.27 313.8C1203.73 309 1197 302.267 1192.07 293.6C1187.27 284.933 1184.87 274.933 1184.87 263.6C1184.87 252.267 1187.33 242.267 1192.27 233.6C1197.33 224.933 1204.2 218.267 1212.87 213.6C1221.53 208.8 1231.2 206.4 1241.87 206.4C1252.53 206.4 1262.2 208.8 1270.87 213.6C1279.53 218.267 1286.33 224.933 1291.27 233.6C1296.33 242.267 1298.87 252.267 1298.87 263.6C1298.87 274.933 1296.27 284.933 1291.07 293.6C1286 302.267 1279.07 309 1270.27 313.8C1261.6 318.467 1251.87 320.8 1241.07 320.8ZM1241.07 296.4C1246.13 296.4 1250.87 295.2 1255.27 292.8C1259.8 290.267 1263.4 286.533 1266.07 281.6C1268.73 276.667 1270.07 270.667 1270.07 263.6C1270.07 253.067 1267.27 245 1261.67 239.4C1256.2 233.667 1249.47 230.8 1241.47 230.8C1233.47 230.8 1226.73 233.667 1221.27 239.4C1215.93 245 1213.27 253.067 1213.27 263.6C1213.27 274.133 1215.87 282.267 1221.07 288C1226.4 293.6 1233.07 296.4 1241.07 296.4Z" fill="white"/>
<path d="M1312.61 249C1312.61 235.267 1315.67 223 1321.81 212.2C1328.07 201.267 1336.54 192.8 1347.21 186.8C1358.01 180.667 1370.07 177.6 1383.41 177.6C1399.01 177.6 1412.67 181.6 1424.41 189.6C1436.14 197.6 1444.34 208.667 1449.01 222.8H1416.81C1413.61 216.133 1409.07 211.133 1403.21 207.8C1397.47 204.467 1390.81 202.8 1383.21 202.8C1375.07 202.8 1367.81 204.733 1361.41 208.6C1355.14 212.333 1350.21 217.667 1346.61 224.6C1343.14 231.533 1341.41 239.667 1341.41 249C1341.41 258.2 1343.14 266.333 1346.61 273.4C1350.21 280.333 1355.14 285.733 1361.41 289.6C1367.81 293.333 1375.07 295.2 1383.21 295.2C1390.81 295.2 1397.47 293.533 1403.21 290.2C1409.07 286.733 1413.61 281.667 1416.81 275H1449.01C1444.34 289.267 1436.14 300.4 1424.41 308.4C1412.81 316.267 1399.14 320.2 1383.41 320.2C1370.07 320.2 1358.01 317.2 1347.21 311.2C1336.54 305.067 1328.07 296.6 1321.81 285.8C1315.67 275 1312.61 262.733 1312.61 249ZM1522.12 320.8C1511.45 320.8 1501.85 318.467 1493.32 313.8C1484.79 309 1478.05 302.267 1473.12 293.6C1468.32 284.933 1465.92 274.933 1465.92 263.6C1465.92 252.267 1468.39 242.267 1473.32 233.6C1478.39 224.933 1485.25 218.267 1493.92 213.6C1502.59 208.8 1512.25 206.4 1522.92 206.4C1533.59 206.4 1543.25 208.8 1551.92 213.6C1560.59 218.267 1567.39 224.933 1572.32 233.6C1577.39 242.267 1579.92 252.267 1579.92 263.6C1579.92 274.933 1577.32 284.933 1572.12 293.6C1567.05 302.267 1560.12 309 1551.32 313.8C1542.65 318.467 1532.92 320.8 1522.12 320.8ZM1522.12 296.4C1527.19 296.4 1531.92 295.2 1536.32 292.8C1540.85 290.267 1544.45 286.533 1547.12 281.6C1549.79 276.667 1551.12 270.667 1551.12 263.6C1551.12 253.067 1548.32 245 1542.72 239.4C1537.25 233.667 1530.52 230.8 1522.52 230.8C1514.52 230.8 1507.79 233.667 1502.32 239.4C1496.99 245 1494.32 253.067 1494.32 263.6C1494.32 274.133 1496.92 282.267 1502.12 288C1507.45 293.6 1514.12 296.4 1522.12 296.4ZM1593.26 263.2C1593.26 252 1595.46 242.067 1599.86 233.4C1604.39 224.733 1610.53 218.067 1618.26 213.4C1625.99 208.733 1634.59 206.4 1644.06 206.4C1651.26 206.4 1658.13 208 1664.66 211.2C1671.19 214.267 1676.39 218.4 1680.26 223.6V171H1708.66V319H1680.26V302.6C1676.79 308.067 1671.93 312.467 1665.66 315.8C1659.39 319.133 1652.13 320.8 1643.86 320.8C1634.53 320.8 1625.99 318.4 1618.26 313.6C1610.53 308.8 1604.39 302.067 1599.86 293.4C1595.46 284.6 1593.26 274.533 1593.26 263.2ZM1680.46 263.6C1680.46 256.8 1679.13 251 1676.46 246.2C1673.79 241.267 1670.19 237.533 1665.66 235C1661.13 232.333 1656.26 231 1651.06 231C1645.86 231 1641.06 232.267 1636.66 234.8C1632.26 237.333 1628.66 241.067 1625.86 246C1623.19 250.8 1621.86 256.533 1621.86 263.2C1621.86 269.867 1623.19 275.733 1625.86 280.8C1628.66 285.733 1632.26 289.533 1636.66 292.2C1641.19 294.867 1645.99 296.2 1651.06 296.2C1656.26 296.2 1661.13 294.933 1665.66 292.4C1670.19 289.733 1673.79 286 1676.46 281.2C1679.13 276.267 1680.46 270.4 1680.46 263.6ZM1839.01 261.2C1839.01 265.2 1838.74 268.8 1838.21 272H1757.21C1757.87 280 1760.67 286.267 1765.61 290.8C1770.54 295.333 1776.61 297.6 1783.81 297.6C1794.21 297.6 1801.61 293.133 1806.01 284.2H1836.21C1833.01 294.867 1826.87 303.667 1817.81 310.6C1808.74 317.4 1797.61 320.8 1784.41 320.8C1773.74 320.8 1764.14 318.467 1755.61 313.8C1747.21 309 1740.61 302.267 1735.81 293.6C1731.14 284.933 1728.81 274.933 1728.81 263.6C1728.81 252.133 1731.14 242.067 1735.81 233.4C1740.47 224.733 1747.01 218.067 1755.41 213.4C1763.81 208.733 1773.47 206.4 1784.41 206.4C1794.94 206.4 1804.34 208.667 1812.61 213.2C1821.01 217.733 1827.47 224.2 1832.01 232.6C1836.67 240.867 1839.01 250.4 1839.01 261.2ZM1810.01 253.2C1809.87 246 1807.27 240.267 1802.21 236C1797.14 231.6 1790.94 229.4 1783.61 229.4C1776.67 229.4 1770.81 231.533 1766.01 235.8C1761.34 239.933 1758.47 245.733 1757.41 253.2H1810.01Z" fill="#FF5C00"/>
<path d="M150.179 466.6C181.025 480.294 213.581 488.884 249.543 488.884C285.582 488.884 319.833 480.294 348.984 466.6C316.428 444.317 282.177 416.836 249.543 387.659C217.064 416.836 182.735 444.317 150.179 466.6ZM455.22 370.479C476.576 333.471 487.806 291.482 487.776 248.745C487.776 212.752 479.194 178.393 465.513 149.216C429.551 202.466 378.136 262.438 319.833 320.793C307.846 332.79 294.164 346.484 280.404 358.482C275.076 352.952 269.367 347.804 263.318 343.076C277.298 330.788 290.468 317.606 302.746 303.613C366.149 240.155 419.274 176.697 453.525 123.524C492.954 63.4738 503.246 25.7848 486.082 6.89358C484.387 3.48569 475.805 0 467.207 0C446.638 0 412.387 15.4833 371.248 42.8709C335.287 22.3613 294.164 8.58974 249.543 8.58974C204.999 8.58974 163.876 20.5874 127.915 42.8709C86.7761 15.4833 52.525 0 31.9557 0C21.6789 0 14.7913 3.48569 9.69176 8.58974C-31.4468 49.7645 97.0685 209.344 193.028 305.309C306.151 418.532 419.274 497.474 467.207 497.474C477.484 497.474 484.372 493.988 489.471 488.884C506.636 471.704 496.359 432.319 456.993 372.253L455.22 370.479ZM467.207 22.3769C468.902 22.3769 472.385 22.3769 474.095 24.0731C479.194 29.1771 477.5 51.4607 443.249 106.329C429.567 87.5313 412.402 68.6401 391.833 54.8685C426.084 34.2812 451.831 22.3613 467.223 22.3613L467.207 22.3769ZM55.9299 106.345C26.7784 60.066 18.1962 30.8888 25.0838 24.0886C26.7784 22.3925 30.2611 22.3925 31.9713 22.3925C47.3633 22.3925 73.1099 34.3123 107.361 54.8997C88.566 70.311 71.3433 87.5488 55.9455 106.36L55.9299 106.345ZM474.095 473.416C472.307 475.112 468.917 475.112 467.207 475.112C451.815 475.112 426.069 463.193 391.818 442.605C410.692 428.834 429.551 411.732 443.233 391.145C477.484 446.013 479.194 468.297 474.079 473.401L474.095 473.416ZM222.179 361.967C206.709 348.274 191.333 334.486 177.558 319.097C121.043 262.438 66.2224 198.98 31.878 147.519C18.274 178.393 9.69176 212.767 9.69176 247.048C9.69176 291.631 21.6789 332.79 42.2482 368.783L40.5535 370.479C1.1251 430.53 -9.16733 468.297 7.99708 487.188C13.0967 492.292 21.6789 495.7 30.2611 495.7C67.917 495.7 145.079 447.725 230.761 372.269C227.555 369.144 224.679 365.698 222.179 361.983V361.967ZM31.878 475.112C30.2611 475.112 26.7784 475.112 25.0682 473.416C19.9686 468.312 21.6633 446.029 55.9144 391.16C69.5962 409.958 86.7606 427.153 107.33 442.621C73.0011 463.208 47.3322 475.128 31.8625 475.128L31.878 475.112Z" fill="white"/>
</svg>
