<svg width="469" height="469" viewBox="0 0 469 469" fill="none" xmlns="http://www.w3.org/2000/svg">
<g clip-path="url(#clip0_1825_1959)">
<path d="M141.594 439.688C170.672 452.585 201.362 460.675 235.262 460.675C269.235 460.675 301.523 452.585 329.003 439.688C298.313 418.7 266.026 392.817 235.262 365.336C204.645 392.817 172.284 418.7 141.594 439.688ZM429.15 349.156C449.282 314.3 459.867 274.752 459.84 234.5C459.84 200.6 451.75 168.239 438.852 140.759C404.952 190.912 356.484 247.398 301.523 302.358C290.223 313.658 277.326 326.556 264.355 337.856C259.332 332.648 253.95 327.799 248.248 323.346C261.426 311.772 273.842 299.357 285.416 286.178C345.184 226.41 395.264 166.642 427.552 116.561C464.72 60.0027 474.423 24.5053 458.242 6.71257C456.645 3.50285 448.555 0.219849 440.45 0.219849C421.059 0.219849 388.772 14.8028 349.991 40.5978C316.091 21.2809 277.326 8.3101 235.262 8.3101C193.272 8.3101 154.506 19.6101 120.606 40.5978C81.8258 14.8028 49.5381 0.219849 30.1479 0.219849C20.4601 0.219849 13.9674 3.50285 9.16013 8.3101C-29.6203 47.0905 91.5282 197.39 181.987 287.775C288.626 394.414 395.264 468.766 440.45 468.766C450.137 468.766 456.63 465.483 461.437 460.675C477.618 444.495 467.93 407.4 430.82 350.827L429.15 349.156ZM440.45 21.2955C442.047 21.2955 445.33 21.2955 446.942 22.8931C451.75 27.7003 450.152 48.6881 417.864 100.366C404.967 82.6613 388.786 64.8686 369.396 51.8978C401.684 32.5076 425.955 21.2809 440.464 21.2809L440.45 21.2955ZM52.7478 100.381C25.2673 56.793 17.1771 29.3125 23.6698 22.9077C25.2673 21.3102 28.5503 21.3102 30.1625 21.3102C44.6722 21.3102 68.943 32.5369 101.231 51.9271C83.5131 66.4423 67.2776 82.6777 52.7625 100.395L52.7478 100.381ZM446.942 446.107C445.257 447.704 442.062 447.705 440.45 447.705C425.94 447.705 401.669 436.478 369.381 417.088C387.174 404.117 404.952 388.01 417.85 368.619C450.137 420.297 451.75 441.285 446.928 446.092L446.942 446.107ZM209.467 341.139C194.884 328.241 180.389 315.256 167.404 300.761C114.128 247.398 62.4503 187.629 30.0746 139.161C17.2504 168.239 9.16013 200.615 9.16013 232.902C9.16013 274.893 20.4601 313.658 39.8503 347.558L38.2528 349.156C1.08453 405.714 -8.61791 441.285 7.5626 459.078C12.3698 463.885 20.4601 467.095 28.5503 467.095C64.0478 467.095 136.787 421.909 217.557 350.841C214.535 347.898 211.824 344.652 209.467 341.154V341.139ZM30.0746 447.705C28.5503 447.705 25.2673 447.704 23.6552 446.107C18.8479 441.3 20.4454 420.312 52.7332 368.634C65.6307 386.339 81.8112 402.534 101.201 417.102C68.8404 436.492 44.6429 447.719 30.0599 447.719L30.0746 447.705Z" fill="#D8630F"/>
</g>
<defs>
<clipPath id="clip0_1825_1959">
<rect width="469" height="469" fill="white"/>
</clipPath>
</defs>
</svg>
